{
    "packets": [
        {
            "codec_type": "video",
            "stream_index": 0,
            "pts": 80,
            "pts_time": "0.080000",
            "duration": 40,
            "duration_time": "0.040000",
            "size": "105942",
            "pos": "1098",
            "flags": "K_"
        },
        {
            "codec_type": "video",
            "stream_index": 0,
            "pts": 40,
            "pts_time": "0.040000",
            "duration": 40,
            "duration_time": "0.040000",
            "size": "2799",
            "pos": "107047",
            "flags": "__"
        },
        {
            "codec_type": "audio",
            "stream_index": 1,
            "pts": 0,
            "pts_time": "0.000000",
            "dts": 0,
            "dts_time": "0.000000",
            "duration": 21,
            "duration_time": "0.021000",
            "size": "351",
            "pos": "109853",
            "flags": "K_"
        },
        {
            "codec_type": "video",
            "stream_index": 0,
            "pts": 1,
            "pts_time": "0.001000",
            "duration": 40,
            "duration_time": "0.040000",
            "size": "3191",
            "pos": "110211",
            "flags": "__"
        },
        {
            "codec_type": "video",
            "stream_index": 0,
            "pts": 400,
            "pts_time": "0.400000",
            "dts": 1,
            "dts_time": "0.001000",
            "duration": 40,
            "duration_time": "0.040000",
            "size": "8912",
            "pos": "113409",
            "flags": "__"
        },
        {
            "codec_type": "audio",
            "stream_index": 1,
            "pts": 21,
            "pts_time": "0.021000",
            "dts": 21,
            "dts_time": "0.021000",
            "duration": 21,
            "duration_time": "0.021000",
            "size": "366",
            "pos": "122328",
            "flags": "K_"
        },
        {
            "codec_type": "video",
            "stream_index": 0,
            "pts": 240,
            "pts_time": "0.240000",
            "dts": 40,
            "dts_time": "0.040000",
            "duration": 40,
            "duration_time": "0.040000",
            "size": "7386",
            "pos": "122701",
            "flags": "__"
        },
        {
            "codec_type": "audio",
            "stream_index": 1,
            "pts": 42,
            "pts_time": "0.042000",
            "dts": 42,
            "dts_time": "0.042000",
            "duration": 21,
            "duration_time": "0.021000",
            "size": "346",
            "pos": "130094",
            "flags": "K_"
        },
        {
            "codec_type": "audio",
            "stream_index": 1,
            "pts": 63,
            "pts_time": "0.063000",
            "dts": 63,
            "dts_time": "0.063000",
            "duration": 21,
            "duration_time": "0.021000",
            "size": "289",
            "pos": "130447",
            "flags": "K_"
        },
        {
            "codec_type": "video",
            "stream_index": 0,
            "pts": 160,
            "pts_time": "0.160000",
            "dts": 80,
            "dts_time": "0.080000",
            "duration": 40,
            "duration_time": "0.040000",
            "size": "5639",
            "pos": "130743",
            "flags": "__"
        },
        {
            "codec_type": "audio",
            "stream_index": 1,
            "pts": 85,
            "pts_time": "0.085000",
            "dts": 85,
            "dts_time": "0.085000",
            "duration": 21,
            "duration_time": "0.021000",
            "size": "304",
            "pos": "136389",
            "flags": "K_"
        },
        {
            "codec_type": "audio",
            "stream_index": 1,
            "pts": 106,
            "pts_time": "0.106000",
            "dts": 106,
            "dts_time": "0.106000",
            "duration": 21,
            "duration_time": "0.021000",
            "size": "350",
            "pos": "136700",
            "flags": "K_"
        },
        {
            "codec_type": "video",
            "stream_index": 0,
            "pts": 120,
            "pts_time": "0.120000",
            "dts": 120,
            "dts_time": "0.120000",
            "duration": 40,
            "duration_time": "0.040000",
            "size": "4905",
            "pos": "137057",
            "flags": "__"
        },
        {
            "codec_type": "audio",
            "stream_index": 1,
            "pts": 127,
            "pts_time": "0.127000",
            "dts": 127,
            "dts_time": "0.127000",
            "duration": 21,
            "duration_time": "0.021000",
            "size": "315",
            "pos": "141969",
            "flags": "K_"
        },
        {
            "codec_type": "audio",
            "stream_index": 1,
            "pts": 148,
            "pts_time": "0.148000",
            "dts": 148,
            "dts_time": "0.148000",
            "duration": 21,
            "duration_time": "0.021000",
            "size": "296",
            "pos": "142291",
            "flags": "K_"
        },
        {
            "codec_type": "video",
            "stream_index": 0,
            "pts": 200,
            "pts_time": "0.200000",
            "dts": 160,
            "dts_time": "0.160000",
            "duration": 40,
            "duration_time": "0.040000",
            "size": "4405",
            "pos": "142594",
            "flags": "__"
        },
        {
            "codec_type": "audio",
            "stream_index": 1,
            "pts": 171,
            "pts_time": "0.171000",
            "dts": 171,
            "dts_time": "0.171000",
            "duration": 21,
            "duration_time": "0.021000",
            "size": "288",
            "pos": "147006",
            "flags": "K_"
        },
        {
            "codec_type": "audio",
            "stream_index": 1,
            "pts": 192,
            "pts_time": "0.192000",
            "dts": 192,
            "dts_time": "0.192000",
            "duration": 21,
            "duration_time": "0.021000",
            "size": "373",
            "pos": "147301",
            "flags": "K_"
        },
        {
            "codec_type": "video",
            "stream_index": 0,
            "pts": 320,
            "pts_time": "0.320000",
            "dts": 200,
            "dts_time": "0.200000",
            "duration": 40,
            "duration_time": "0.040000",
            "size": "6826",
            "pos": "147681",
            "flags": "__"
        },
        {
            "codec_type": "audio",
            "stream_index": 1,
            "pts": 213,
            "pts_time": "0.213000",
            "dts": 213,
            "dts_time": "0.213000",
            "duration": 21,
            "duration_time": "0.021000",
            "size": "289",
            "pos": "154514",
            "flags": "K_"
        },
        {
            "codec_type": "audio",
            "stream_index": 1,
            "pts": 234,
            "pts_time": "0.234000",
            "dts": 234,
            "dts_time": "0.234000",
            "duration": 21,
            "duration_time": "0.021000",
            "size": "273",
            "pos": "154810",
            "flags": "K_"
        },
        {
            "codec_type": "video",
            "stream_index": 0,
            "pts": 280,
            "pts_time": "0.280000",
            "dts": 240,
            "dts_time": "0.240000",
            "duration": 40,
            "duration_time": "0.040000",
            "size": "4767",
            "pos": "155090",
            "flags": "__"
        },
        {
            "codec_type": "audio",
            "stream_index": 1,
            "pts": 256,
            "pts_time": "0.256000",
            "dts": 256,
            "dts_time": "0.256000",
            "duration": 21,
            "duration_time": "0.021000",
            "size": "296",
            "pos": "159864",
            "flags": "K_"
        },
        {
            "codec_type": "audio",
            "stream_index": 1,
            "pts": 277,
            "pts_time": "0.277000",
            "dts": 277,
            "dts_time": "0.277000",
            "duration": 21,
            "duration_time": "0.021000",
            "size": "316",
            "pos": "160167",
            "flags": "K_"
        },
        {
            "codec_type": "video",
            "stream_index": 0,
            "pts": 360,
            "pts_time": "0.360000",
            "dts": 280,
            "dts_time": "0.280000",
            "duration": 40,
            "duration_time": "0.040000",
            "size": "6447",
            "pos": "160490",
            "flags": "__"
        },
        {
            "codec_type": "audio",
            "stream_index": 1,
            "pts": 298,
            "pts_time": "0.298000",
            "dts": 298,
            "dts_time": "0.298000",
            "duration": 21,
            "duration_time": "0.021000",
            "size": "335",
            "pos": "166944",
            "flags": "K_"
        },
        {
            "codec_type": "audio",
            "stream_index": 1,
            "pts": 319,
            "pts_time": "0.319000",
            "dts": 319,
            "dts_time": "0.319000",
            "duration": 21,
            "duration_time": "0.021000",
            "size": "289",
            "pos": "167286",
            "flags": "K_"
        },
        {
            "codec_type": "video",
            "stream_index": 0,
            "pts": 560,
            "pts_time": "0.560000",
            "dts": 320,
            "dts_time": "0.320000",
            "duration": 40,
            "duration_time": "0.040000",
            "size": "35063",
            "pos": "167583",
            "flags": "__"
        },
        {
            "codec_type": "audio",
            "stream_index": 1,
            "pts": 341,
            "pts_time": "0.341000",
            "dts": 341,
            "dts_time": "0.341000",
            "duration": 21,
            "duration_time": "0.021000",
            "size": "281",
            "pos": "202653",
            "flags": "K_"
        },
        {
            "codec_type": "video",
            "stream_index": 0,
            "pts": 480,
            "pts_time": "0.480000",
            "dts": 360,
            "dts_time": "0.360000",
            "duration": 40,
            "duration_time": "0.040000",
            "size": "19700",
            "pos": "202942",
            "flags": "__"
        },
        {
            "codec_type": "audio",
            "stream_index": 1,
            "pts": 362,
            "pts_time": "0.362000",
            "dts": 362,
            "dts_time": "0.362000",
            "duration": 21,
            "duration_time": "0.021000",
            "size": "297",
            "pos": "222649",
            "flags": "K_"
        },
        {
            "codec_type": "audio",
            "stream_index": 1,
            "pts": 383,
            "pts_time": "0.383000",
            "dts": 383,
            "dts_time": "0.383000",
            "duration": 21,
            "duration_time": "0.021000",
            "size": "366",
            "pos": "222953",
            "flags": "K_"
        },
        {
            "codec_type": "video",
            "stream_index": 0,
            "pts": 440,
            "pts_time": "0.440000",
            "dts": 400,
            "dts_time": "0.400000",
            "duration": 40,
            "duration_time": "0.040000",
            "size": "14378",
            "pos": "223326",
            "flags": "__"
        },
        {
            "codec_type": "audio",
            "stream_index": 1,
            "pts": 404,
            "pts_time": "0.404000",
            "dts": 404,
            "dts_time": "0.404000",
            "duration": 21,
            "duration_time": "0.021000",
            "size": "310",
            "pos": "237711",
            "flags": "K_"
        },
        {
            "codec_type": "audio",
            "stream_index": 1,
            "pts": 426,
            "pts_time": "0.426000",
            "dts": 426,
            "dts_time": "0.426000",
            "duration": 21,
            "duration_time": "0.021000",
            "size": "307",
            "pos": "238028",
            "flags": "K_"
        },
        {
            "codec_type": "video",
            "stream_index": 0,
            "pts": 520,
            "pts_time": "0.520000",
            "dts": 440,
            "dts_time": "0.440000",
            "duration": 40,
            "duration_time": "0.040000",
            "size": "14592",
            "pos": "238342",
            "flags": "__"
        },
        {
            "codec_type": "audio",
            "stream_index": 1,
            "pts": 447,
            "pts_time": "0.447000",
            "dts": 447,
            "dts_time": "0.447000",
            "duration": 21,
            "duration_time": "0.021000",
            "size": "297",
            "pos": "252941",
            "flags": "K_"
        },
        {
            "codec_type": "audio",
            "stream_index": 1,
            "pts": 468,
            "pts_time": "0.468000",
            "dts": 468,
            "dts_time": "0.468000",
            "duration": 21,
            "duration_time": "0.021000",
            "size": "296",
            "pos": "253267",
            "flags": "K_"
        },
        {
            "codec_type": "video",
            "stream_index": 0,
            "pts": 680,
            "pts_time": "0.680000",
            "dts": 480,
            "dts_time": "0.480000",
            "duration": 40,
            "duration_time": "0.040000",
            "size": "137885",
            "pos": "253571",
            "flags": "K_"
        },
        {
            "codec_type": "audio",
            "stream_index": 1,
            "pts": 489,
            "pts_time": "0.489000",
            "dts": 489,
            "dts_time": "0.489000",
            "duration": 21,
            "duration_time": "0.021000",
            "size": "301",
            "pos": "391463",
            "flags": "K_"
        },
        {
            "codec_type": "audio",
            "stream_index": 1,
            "pts": 512,
            "pts_time": "0.512000",
            "dts": 512,
            "dts_time": "0.512000",
            "duration": 21,
            "duration_time": "0.021000",
            "size": "315",
            "pos": "391771",
            "flags": "K_"
        },
        {
            "codec_type": "video",
            "stream_index": 0,
            "pts": 640,
            "pts_time": "0.640000",
            "dts": 520,
            "dts_time": "0.520000",
            "duration": 40,
            "duration_time": "0.040000",
            "size": "72886",
            "pos": "392094",
            "flags": "__"
        },
        {
            "codec_type": "audio",
            "stream_index": 1,
            "pts": 533,
            "pts_time": "0.533000",
            "dts": 533,
            "dts_time": "0.533000",
            "duration": 21,
            "duration_time": "0.021000",
            "size": "345",
            "pos": "464987",
            "flags": "K_"
        },
        {
            "codec_type": "audio",
            "stream_index": 1,
            "pts": 554,
            "pts_time": "0.554000",
            "dts": 554,
            "dts_time": "0.554000",
            "duration": 21,
            "duration_time": "0.021000",
            "size": "364",
            "pos": "465339",
            "flags": "K_"
        },
        {
            "codec_type": "video",
            "stream_index": 0,
            "pts": 600,
            "pts_time": "0.600000",
            "dts": 560,
            "dts_time": "0.560000",
            "duration": 40,
            "duration_time": "0.040000",
            "size": "46956",
            "pos": "465711",
            "flags": "__"
        },
        {
            "codec_type": "audio",
            "stream_index": 1,
            "pts": 575,
            "pts_time": "0.575000",
            "dts": 575,
            "dts_time": "0.575000",
            "duration": 21,
            "duration_time": "0.021000",
            "size": "360",
            "pos": "512674",
            "flags": "K_"
        },
        {
            "codec_type": "audio",
            "stream_index": 1,
            "pts": 597,
            "pts_time": "0.597000",
            "dts": 597,
            "dts_time": "0.597000",
            "duration": 21,
            "duration_time": "0.021000",
            "size": "315",
            "pos": "513041",
            "flags": "K_"
        },
        {
            "codec_type": "video",
            "stream_index": 0,
            "pts": 1000,
            "pts_time": "1.000000",
            "dts": 600,
            "dts_time": "0.600000",
            "duration": 40,
            "duration_time": "0.040000",
            "size": "209417",
            "pos": "513364",
            "flags": "__"
        },
        {
            "codec_type": "audio",
            "stream_index": 1,
            "pts": 618,
            "pts_time": "0.618000",
            "dts": 618,
            "dts_time": "0.618000",
            "duration": 21,
            "duration_time": "0.021000",
            "size": "310",
            "pos": "722788",
            "flags": "K_"
        },
        {
            "codec_type": "audio",
            "stream_index": 1,
            "pts": 639,
            "pts_time": "0.639000",
            "dts": 639,
            "dts_time": "0.639000",
            "duration": 21,
            "duration_time": "0.021000",
            "size": "311",
            "pos": "723105",
            "flags": "K_"
        },
        {
            "codec_type": "video",
            "stream_index": 0,
            "pts": 840,
            "pts_time": "0.840000",
            "dts": 640,
            "dts_time": "0.640000",
            "duration": 40,
            "duration_time": "0.040000",
            "size": "124248",
            "pos": "723424",
            "flags": "__"
        },
        {
            "codec_type": "audio",
            "stream_index": 1,
            "pts": 660,
            "pts_time": "0.660000",
            "dts": 660,
            "dts_time": "0.660000",
            "duration": 21,
            "duration_time": "0.021000",
            "size": "330",
            "pos": "847679",
            "flags": "K_"
        },
        {
            "codec_type": "video",
            "stream_index": 0,
            "pts": 760,
            "pts_time": "0.760000",
            "dts": 680,
            "dts_time": "0.680000",
            "duration": 40,
            "duration_time": "0.040000",
            "size": "75094",
            "pos": "848017",
            "flags": "__"
        },
        {
            "codec_type": "audio",
            "stream_index": 1,
            "pts": 683,
            "pts_time": "0.683000",
            "dts": 683,
            "dts_time": "0.683000",
            "duration": 21,
            "duration_time": "0.021000",
            "size": "324",
            "pos": "923118",
            "flags": "K_"
        },
        {
            "codec_type": "audio",
            "stream_index": 1,
            "pts": 704,
            "pts_time": "0.704000",
            "dts": 704,
            "dts_time": "0.704000",
            "duration": 21,
            "duration_time": "0.021000",
            "size": "321",
            "pos": "923449",
            "flags": "K_"
        },
        {
            "codec_type": "video",
            "stream_index": 0,
            "pts": 720,
            "pts_time": "0.720000",
            "dts": 720,
            "dts_time": "0.720000",
            "duration": 40,
            "duration_time": "0.040000",
            "size": "46453",
            "pos": "923778",
            "flags": "__"
        },
        {
            "codec_type": "audio",
            "stream_index": 1,
            "pts": 725,
            "pts_time": "0.725000",
            "dts": 725,
            "dts_time": "0.725000",
            "duration": 21,
            "duration_time": "0.021000",
            "size": "325",
            "pos": "970238",
            "flags": "K_"
        },
        {
            "codec_type": "audio",
            "stream_index": 1,
            "pts": 746,
            "pts_time": "0.746000",
            "dts": 746,
            "dts_time": "0.746000",
            "duration": 21,
            "duration_time": "0.021000",
            "size": "332",
            "pos": "970570",
            "flags": "K_"
        },
        {
            "codec_type": "video",
            "stream_index": 0,
            "pts": 800,
            "pts_time": "0.800000",
            "dts": 760,
            "dts_time": "0.760000",
            "duration": 40,
            "duration_time": "0.040000",
            "size": "31170",
            "pos": "970910",
            "flags": "__"
        },
        {
            "codec_type": "audio",
            "stream_index": 1,
            "pts": 768,
            "pts_time": "0.768000",
            "dts": 768,
            "dts_time": "0.768000",
            "duration": 21,
            "duration_time": "0.021000",
            "size": "379",
            "pos": "1002087",
            "flags": "K_"
        },
        {
            "codec_type": "audio",
            "stream_index": 1,
            "pts": 789,
            "pts_time": "0.789000",
            "dts": 789,
            "dts_time": "0.789000",
            "duration": 21,
            "duration_time": "0.021000",
            "size": "315",
            "pos": "1002473",
            "flags": "K_"
        },
        {
            "codec_type": "video",
            "stream_index": 0,
            "pts": 920,
            "pts_time": "0.920000",
            "dts": 800,
            "dts_time": "0.800000",
            "duration": 40,
            "duration_time": "0.040000",
            "size": "52486",
            "pos": "1002796",
            "flags": "__"
        },
        {
            "codec_type": "audio",
            "stream_index": 1,
            "pts": 810,
            "pts_time": "0.810000",
            "dts": 810,
            "dts_time": "0.810000",
            "duration": 21,
            "duration_time": "0.021000",
            "size": "314",
            "pos": "1055289",
            "flags": "K_"
        },
        {
            "codec_type": "audio",
            "stream_index": 1,
            "pts": 831,
            "pts_time": "0.831000",
            "dts": 831,
            "dts_time": "0.831000",
            "duration": 21,
            "duration_time": "0.021000",
            "size": "313",
            "pos": "1055610",
            "flags": "K_"
        },
        {
            "codec_type": "video",
            "stream_index": 0,
            "pts": 880,
            "pts_time": "0.880000",
            "dts": 840,
            "dts_time": "0.840000",
            "duration": 40,
            "duration_time": "0.040000",
            "size": "28674",
            "pos": "1055931",
            "flags": "__"
        },
        {
            "codec_type": "audio",
            "stream_index": 1,
            "pts": 853,
            "pts_time": "0.853000",
            "dts": 853,
            "dts_time": "0.853000",
            "duration": 21,
            "duration_time": "0.021000",
            "size": "322",
            "pos": "1084612",
            "flags": "K_"
        },
        {
            "codec_type": "audio",
            "stream_index": 1,
            "pts": 874,
            "pts_time": "0.874000",
            "dts": 874,
            "dts_time": "0.874000",
            "duration": 21,
            "duration_time": "0.021000",
            "size": "325",
            "pos": "1084941",
            "flags": "K_"
        },
        {
            "codec_type": "video",
            "stream_index": 0,
            "pts": 960,
            "pts_time": "0.960000",
            "dts": 880,
            "dts_time": "0.880000",
            "duration": 40,
            "duration_time": "0.040000",
            "size": "27856",
            "pos": "1085274",
            "flags": "__"
        },
        {
            "codec_type": "audio",
            "stream_index": 1,
            "pts": 895,
            "pts_time": "0.895000",
            "dts": 895,
            "dts_time": "0.895000",
            "duration": 21,
            "duration_time": "0.021000",
            "size": "306",
            "pos": "1113137",
            "flags": "K_"
        },
        {
            "codec_type": "audio",
            "stream_index": 1,
            "pts": 916,
            "pts_time": "0.916000",
            "dts": 916,
            "dts_time": "0.916000",
            "duration": 21,
            "duration_time": "0.021000",
            "size": "322",
            "pos": "1113450",
            "flags": "K_"
        },
        {
            "codec_type": "audio",
            "stream_index": 1,
            "pts": 2809941,
            "pts_time": "2809.941000",
            "dts": 2809941,
            "dts_time": "2809.941000",
            "duration": 21,
            "duration_time": "0.021000",
            "size": "334",
            "pos": "2226325004",
            "flags": "K_"
        },
        {
            "codec_type": "audio",
            "stream_index": 1,
            "pts": 2809962,
            "pts_time": "2809.962000",
            "dts": 2809962,
            "dts_time": "2809.962000",
            "duration": 21,
            "duration_time": "0.021000",
            "size": "335",
            "pos": "2226325345",
            "flags": "K_"
        },
        {
            "codec_type": "audio",
            "stream_index": 1,
            "pts": 2809983,
            "pts_time": "2809.983000",
            "dts": 2809983,
            "dts_time": "2809.983000",
            "duration": 21,
            "duration_time": "0.021000",
            "size": "336",
            "pos": "2226325687",
            "flags": "K_"
        }
    ]
}
